<svg width="16" height="18" viewBox="0 0 16 18" fill="none" xmlns="http://www.w3.org/2000/svg">
<path fill-rule="evenodd" clip-rule="evenodd" d="M8.00001 1.25C8.14003 1.24991 8.27727 1.28901 8.39621 1.36289C8.51515 1.43676 8.61103 1.54245 8.67301 1.668L10.555 5.483L14.765 6.095C14.9035 6.11511 15.0336 6.17355 15.1405 6.26372C15.2475 6.35388 15.3272 6.47218 15.3704 6.60523C15.4137 6.73829 15.4189 6.8808 15.3854 7.01665C15.352 7.1525 15.2812 7.27628 15.181 7.374L12.135 10.344L12.854 14.536C12.8777 14.6739 12.8624 14.8157 12.8097 14.9454C12.757 15.0751 12.6691 15.1874 12.5559 15.2697C12.4427 15.352 12.3087 15.401 12.1691 15.4111C12.0295 15.4212 11.8899 15.3921 11.766 15.327L8.00001 13.347L4.23401 15.327C4.1102 15.392 3.97068 15.4211 3.8312 15.411C3.69173 15.4009 3.55785 15.352 3.44469 15.2699C3.33154 15.1877 3.2436 15.0755 3.19083 14.946C3.13805 14.8165 3.12252 14.6749 3.14601 14.537L3.86601 10.343L0.818012 7.374C0.717578 7.27632 0.646511 7.15247 0.612864 7.01647C0.579216 6.88047 0.584334 6.73777 0.627636 6.60453C0.670939 6.47129 0.750695 6.35284 0.857868 6.26261C0.96504 6.17238 1.09534 6.11397 1.23401 6.094L5.44401 5.483L7.32701 1.668C7.38899 1.54245 7.48488 1.43676 7.60382 1.36289C7.72276 1.28901 7.86 1.24991 8.00001 1.25ZM8.00001 3.695L6.61501 6.5C6.56123 6.6089 6.4818 6.70311 6.38356 6.77453C6.28531 6.84595 6.17119 6.89244 6.05101 6.91L2.95401 7.36L5.19401 9.544C5.28116 9.62886 5.34637 9.73365 5.384 9.84933C5.42163 9.96501 5.43056 10.0881 5.41001 10.208L4.88201 13.292L7.65101 11.836C7.75864 11.7794 7.87842 11.7499 8.00001 11.7499C8.12161 11.7499 8.24138 11.7794 8.34901 11.836L11.119 13.292L10.589 10.208C10.5685 10.0881 10.5774 9.96501 10.615 9.84933C10.6527 9.73365 10.7179 9.62886 10.805 9.544L13.045 7.361L9.94901 6.911C9.82883 6.89344 9.71471 6.84695 9.61647 6.77553C9.51822 6.70411 9.4388 6.6099 9.38501 6.501L8.00001 3.694V3.695Z" fill="#8B949E"/>
</svg>
